<!-- icon666.com - MILLIONS vector ICONS FREE --><svg version="1.1" id="Capa_1" xmlns="http://www.w3.org/2000/svg" xmlns:xlink="http://www.w3.org/1999/xlink" x="0px" y="0px" viewBox="0 0 512.773 512.773" style="enable-background:new 0 0 512.773 512.773;" xml:space="preserve"><g><g><g><path d="M128,384.715l99.375-16.989L495.011,100.09c23.113-22.323,23.753-59.156,1.43-82.269 c-22.323-23.113-59.156-23.753-82.269-1.43c-0.485,0.468-0.962,0.945-1.43,1.43L145.105,285.457L128,384.715z M429.149,34.228 c14.105-13.144,36.195-12.364,49.338,1.741c12.492,13.407,12.492,34.19,0,47.597l-15.011,15.011l-49.338-49.338L429.149,34.228z M397.615,65.762l49.338,49.338L232.727,329.326v-49.338h-49.338L397.615,65.762z M166.051,303.26h43.404v43.404l-52.364,8.96 L166.051,303.26z"></path><path d="M500.364,175.26c-6.427,0-11.636,5.21-11.636,11.636v256c0,25.706-20.839,46.545-46.545,46.545H69.818 c-25.706,0-46.545-20.839-46.545-46.545V70.533c0-25.706,20.839-46.545,46.545-46.545h256c6.427,0,11.636-5.21,11.636-11.636 s-5.21-11.636-11.636-11.636h-256C31.259,0.715,0,31.974,0,70.533v372.364c0,38.56,31.259,69.818,69.818,69.818h372.364 c38.56,0,69.818-31.259,69.818-69.818v-256C512,180.47,506.79,175.26,500.364,175.26z"></path></g></g></g></svg>